HIERARCHY
ROOT Hips
{
  OFFSET 52.3377 86.7523 27.6965
  CHANNELS 6 Xposition Yposition Zposition Zrotation Xrotation Yrotation
  JOINT spine
  {
    OFFSET 0 6.84637 0.3937
    CHANNELS 3 Zrotation Xrotation Yrotation
    JOINT spine1
    {
      OFFSET 0 9.49621 0
      CHANNELS 3 Zrotation Xrotation Yrotation
      JOINT spine2
      {
        OFFSET 0 9.09909 0
        CHANNELS 3 Zrotation Xrotation Yrotation
        JOINT Neck
        {
          OFFSET 0 23.3612 1.11378
          CHANNELS 3 Zrotation Xrotation Yrotation
          JOINT Head
          {
            OFFSET 0 7.05802 0
            CHANNELS 3 Zrotation Xrotation Yrotation
            End Site
            {
              OFFSET 0 17.0844 -5.63419
            }
          }
        }
        JOINT RightShoulder
        {
          OFFSET -3.83136 9.82631 -0.533491
          CHANNELS 3 Zrotation Xrotation Yrotation
          JOINT RightArm
          {
            OFFSET 0 12.8881 0
            CHANNELS 3 Zrotation Xrotation Yrotation
            JOINT RightArmRoll
            {
              OFFSET 0 6.50617 0
              CHANNELS 3 Zrotation Xrotation Yrotation
              JOINT RightForeArm
              {
                OFFSET 0 18.9501 0
                CHANNELS 3 Zrotation Xrotation Yrotation
                JOINT RightForeArmRoll
                {
                  OFFSET 0 7.30092 0
                  CHANNELS 3 Zrotation Xrotation Yrotation
                  JOINT RightHand
                  {
                    OFFSET 0 14.6514 0
                    CHANNELS 3 Zrotation Xrotation Yrotation
                    End Site
                    {
                      OFFSET 0 0 0
                    }
                  }
                }
              }
            }
          }
        }
        JOINT LeftShoulder
        {
          OFFSET 3.83136 9.82631 -0.533491
          CHANNELS 3 Zrotation Xrotation Yrotation
          JOINT LeftArm
          {
            OFFSET 0 12.8881 0
            CHANNELS 3 Zrotation Xrotation Yrotation
            JOINT LeftArmRoll
            {
              OFFSET 0 6.50617 0
              CHANNELS 3 Zrotation Xrotation Yrotation
              JOINT LeftForeArm
              {
                OFFSET 0 18.9501 0
                CHANNELS 3 Zrotation Xrotation Yrotation
                JOINT LeftForeArmRoll
                {
                  OFFSET 0 7.30092 0
                  CHANNELS 3 Zrotation Xrotation Yrotation
                  JOINT LeftHand
                  {
                    OFFSET 0 14.6514 0
                    CHANNELS 3 Zrotation Xrotation Yrotation
                    End Site
                    {
                      OFFSET 0 0 0
                    }
                  }
                }
              }
            }
          }
        }
      }
    }
  }
  JOINT RightUpLeg
  {
    OFFSET -6.06837 -1.11278 -0.933477
    CHANNELS 3 Zrotation Xrotation Yrotation
    JOINT RightUpLegRoll
    {
      OFFSET 0 17.1796 0
      CHANNELS 3 Zrotation Xrotation Yrotation
      JOINT RightLeg
      {
        OFFSET 0 -21.2743 0
        CHANNELS 3 Zrotation Xrotation Yrotation
        JOINT RightLegRoll
        {
          OFFSET 0 21.3439 0
          CHANNELS 3 Zrotation Xrotation Yrotation
          JOINT RightFoot
          {
            OFFSET 0 17.7652 0
            CHANNELS 3 Zrotation Xrotation Yrotation
            JOINT RightToeBase
            {
              OFFSET 0 14.8508 0
              CHANNELS 3 Zrotation Xrotation Yrotation
              End Site
              {
                OFFSET 0.0062947 7.19213 -0.829005
              }
            }
          }
        }
      }
    }
  }
  JOINT LeftUpLeg
  {
    OFFSET 6.06837 -1.11278 -0.933477
    CHANNELS 3 Zrotation Xrotation Yrotation
    JOINT LeftUpLegRoll
    {
      OFFSET 0 17.1797 0
      CHANNELS 3 Zrotation Xrotation Yrotation
      JOINT LeftLeg
      {
        OFFSET 0 21.2742 0
        CHANNELS 3 Zrotation Xrotation Yrotation
        JOINT LeftLegRoll
        {
          OFFSET 0 21.5412 0
          CHANNELS 3 Zrotation Xrotation Yrotation
          JOINT LeftFoot
          {
            OFFSET 0 17.5679 0
            CHANNELS 3 Zrotation Xrotation Yrotation
            JOINT LeftToeBase
            {
              OFFSET 0 14.8508 0
              CHANNELS 3 Zrotation Xrotation Yrotation
              End Site
              {
                OFFSET -0.0282102 7.19213 -0.829005
              }
            }
          }
        }
      }
    }
  }
}
MOTION
Frames: 11
Frame Time: 0.00208333
50.7469 50.7375 -4.69945 -14.8034 -13.1331 -8.09153 3.15186 -1.51294 1.9869 6.33208 1.07117 3.64445 6.29254 2.70909 3.54041 -6.01646 17.4732 -2.14246 3.72691 9.18631 -4.18123 57.5309 -10.1615 -6.31641 123.448 35.802 -48.2867 2.59279e-006 8.62812e-006 2.07828e-006 24.6162 31.5946 -2.03607 -6.77928e-006 -8.0074e-006 -3 8.02943 -4.95125 0.697434 -66.2383 -3.50929 2.7223 -118.931 34.1139 12.6923 -1.19151e-006 7.71617e-008 3.21826e-006 -29.0167 22.0795 5.2909 -7.33054e-006 3.50671e-006 3 -8.03026 -4.9516 -0.697807 -174.481 71.9812 7.02761 -180 1.5248e-005 177.85 118.31 87.0749 -122.762 -3.12544e-007 1.71389e-006 2.04501 -19.839 65.1834 17.2427 8.13649 25.2327 -3.48774 -112.149 67.9223 -60.5624 4.5067e-006 -1.99009e-005 -0.360817 121.196 -82.8409 119.124 3.37344e-006 -1.21137e-005 -2.64775 18.7476 66.0386 -17.9777 -8.13649 25.2327 3.48773 
50.7069 50.8206 -4.68055 -14.8034 -13.1239 -8.10987 3.15147 -1.51148 1.99001 6.33132 1.07426 3.65062 6.29172 2.71217 3.5466 -6.02385 17.4968 -2.13574 3.73854 9.18614 -4.17795 57.5339 -10.1575 -6.31383 123.463 35.8258 -48.268 2.59279e-006 8.62812e-006 2.07828e-006 24.6348 31.5462 -2.0357 -6.77928e-006 -8.0074e-006 -3 8.02943 -4.95125 0.697434 -66.2437 -3.51163 2.72398 -118.932 34.1361 12.7089 -1.19151e-006 7.71617e-008 3.21826e-006 -29.0289 22.0571 5.28506 -7.33054e-006 3.50671e-006 3 -8.03026 -4.9516 -0.697807 -174.432 71.9795 6.96383 -180 1.52481e-005 177.851 118.47 87.0593 -122.923 -3.12544e-007 1.71389e-006 2.04336 -19.8337 65.1772 17.2403 8.13649 25.2327 -3.48774 -112.143 67.9106 -60.567 4.5067e-006 -1.99009e-005 -0.359109 121.18 -82.847 119.111 3.37344e-006 -1.21137e-005 -2.64577 18.7466 66.0419 -17.9802 -8.13649 25.2327 3.48773 
50.716 50.806 -4.68338 -14.8049 -13.1122 -8.12807 3.15136 -1.51058 1.99305 6.33111 1.07622 3.65663 6.29144 2.71414 3.55262 -6.03051 17.5208 -2.12901 3.74972 9.1856 -4.17442 57.5377 -10.1531 -6.31098 123.478 35.8492 -48.249 2.59279e-006 8.62812e-006 2.07828e-006 24.6532 31.4985 -2.03541 -6.77928e-006 -8.0074e-006 -3 8.02943 -4.95125 0.697434 -66.2481 -3.51377 2.72547 -118.933 34.1572 12.7253 -1.19151e-006 7.71617e-008 3.21826e-006 -29.041 22.0354 5.27943 -7.33054e-006 3.50671e-006 3 -8.03026 -4.9516 -0.697807 -174.382 71.9798 6.90015 -180 1.52481e-005 177.851 118.614 87.0426 -123.071 -3.12544e-007 1.71389e-006 2.04164 -19.8287 65.1711 17.2381 8.13649 25.2327 -3.48774 -112.129 67.9007 -60.578 4.5067e-006 -1.99009e-005 -0.357276 121.169 -82.8527 119.101 3.37344e-006 -1.21137e-005 -2.64376 18.7454 66.0452 -17.9827 -8.13649 25.2327 3.48773 
50.7428 50.7325 -4.72578 -14.8075 -13.0988 -8.14618 3.15144 -1.51007 1.99603 6.33129 1.07741 3.66255 6.29154 2.71532 3.55853 -6.03666 17.545 -2.12227 3.76058 9.18482 -4.1707 57.5419 -10.1485 -6.30795 123.492 35.8724 -48.2298 2.59279e-006 8.62812e-006 2.07828e-006 24.6716 31.4511 -2.03518 -6.77928e-006 -8.0074e-006 -3 8.02943 -4.95125 0.697434 -66.2517 -3.51577 2.72683 -118.934 34.1774 12.7416 -1.19151e-006 7.71617e-008 3.21826e-006 -29.0531 22.0143 5.27395 -7.33054e-006 3.50671e-006 3 -8.03026 -4.9516 -0.697807 -174.331 71.9817 6.8365 -180 1.52481e-005 177.852 118.748 87.0253 -123.208 -3.12544e-007 1.71389e-006 2.03988 -19.824 65.1652 17.236 8.13649 25.2327 -3.48774 -112.11 67.892 -60.5936 4.5067e-006 -1.99009e-005 -0.355356 121.161 -82.8581 119.093 3.37344e-006 -1.21137e-005 -2.64172 18.7442 66.0485 -17.9852 -8.13649 25.2327 3.48773 
50.7327 50.7615 -4.71502 -14.8107 -13.0844 -8.16423 3.15162 -1.50978 1.99897 6.33168 1.07815 3.6684 6.29187 2.71605 3.56438 -6.04253 17.5693 -2.11553 3.77126 9.18389 -4.16688 57.5464 -10.1436 -6.30481 123.505 35.8955 -48.2106 2.59279e-006 8.62812e-006 2.07828e-006 24.6898 31.404 -2.03498 -6.77928e-006 -8.0074e-006 -3 8.02943 -4.95125 0.697434 -66.2549 -3.51769 2.72812 -118.935 34.1972 12.7577 -1.19151e-006 7.71617e-008 3.21826e-006 -29.0652 21.9935 5.26855 -7.33054e-006 3.50671e-006 3 -8.03026 -4.9516 -0.697807 -174.28 71.9844 6.77287 -180 1.52481e-005 177.853 118.874 87.0076 -123.339 -3.12544e-007 1.71389e-006 2.03809 -19.8193 65.1593 17.2339 8.13649 25.2327 -3.48774 -112.087 67.8839 -60.6117 4.5067e-006 -1.99009e-005 -0.353385 121.154 -82.8633 119.087 3.37344e-006 -1.21137e-005 -2.63966 18.7429 66.0518 -17.9876 -8.13649 25.2327 3.48773 
50.7539 50.7383 -4.70417 -14.8141 -13.0698 -8.18227 3.15183 -1.50955 2.00191 6.33213 1.07878 3.67423 6.29225 2.71668 3.57021 -6.04834 17.5936 -2.10878 3.7819 9.18293 -4.16304 57.5509 -10.1388 -6.30164 123.519 35.9186 -48.1913 2.59279e-006 8.62812e-006 2.07828e-006 24.7081 31.357 -2.03478 -6.77928e-006 -8.0074e-006 -3 8.02943 -4.95125 0.697434 -66.258 -3.51959 2.72938 -118.936 34.2168 12.7738 -1.19151e-006 7.71617e-008 3.21826e-006 -29.0772 21.9727 5.26318 -7.33054e-006 3.50671e-006 3 -8.03026 -4.9516 -0.697807 -174.229 71.9874 6.70922 -180 1.52481e-005 177.854 118.998 86.9898 -123.467 -3.12544e-007 1.71389e-006 2.0363 -19.8148 65.1534 17.2318 8.13649 25.2327 -3.48774 -112.064 67.8761 -60.6305 4.5067e-006 -1.99009e-005 -0.351401 121.148 -82.8685 119.082 3.37344e-006 -1.21137e-005 -2.6376 18.7415 66.055 -17.9901 -8.13649 25.2327 3.48773 
50.7519 50.7429 -4.71126 -14.8172 -13.0556 -8.20034 3.15198 -1.50921 2.00487 6.33247 1.07963 3.6801 6.29252 2.71752 3.57607 -6.05429 17.6179 -2.10204 3.79263 9.18203 -4.15924 57.5554 -10.134 -6.29853 123.533 35.9417 -48.172 2.59279e-006 8.62812e-006 2.07828e-006 24.7264 31.3098 -2.03457 -6.77928e-006 -8.0074e-006 -3 8.02943 -4.95125 0.697434 -66.2613 -3.52153 2.73069 -118.937 34.2367 12.79 -1.19151e-006 7.71617e-008 3.21826e-006 -29.0893 21.9518 5.25777 -7.33054e-006 3.50671e-006 3 -8.03026 -4.9516 -0.697807 -174.179 71.9898 6.64554 -180 1.52481e-005 177.854 119.123 86.9722 -123.596 -3.12544e-007 1.71389e-006 2.03451 -19.8101 65.1474 17.2298 8.13649 25.2327 -3.48774 -112.042 67.8679 -60.648 4.5067e-006 -1.99009e-005 -0.349443 121.14 -82.8738 119.076 3.37344e-006 -1.21137e-005 -2.63555 18.7402 66.0583 -17.9925 -8.13649 25.2327 3.48773 
50.7478 50.7373 -4.72842 -14.8194 -13.0427 -8.21847 3.152 -1.50859 2.00787 6.33254 1.08104 3.68604 6.29252 2.71893 3.58202 -6.06062 17.642 -2.09529 3.80359 9.18132 -4.15558 57.5595 -10.1294 -6.29555 123.547 35.965 -48.1529 2.59279e-006 8.62812e-006 2.07828e-006 24.7447 31.2624 -2.03433 -6.77928e-006 -8.0074e-006 -3 8.02943 -4.95125 0.697434 -66.2652 -3.52357 2.73209 -118.938 34.2572 12.8063 -1.19151e-006 7.71617e-008 3.21826e-006 -29.1014 21.9305 5.25226 -7.33054e-006 3.50671e-006 3 -8.03026 -4.9516 -0.697807 -174.128 71.9912 6.58183 -180 1.52481e-005 177.855 119.253 86.955 -123.729 -3.12544e-007 1.71389e-006 2.03276 -19.8053 65.1415 17.2276 8.13649 25.2327 -3.48774 -112.025 67.8588 -60.6622 4.5067e-006 -1.99009e-005 -0.347547 121.131 -82.8792 119.067 3.37344e-006 -1.21137e-005 -2.63352 18.739 66.0616 -17.995 -8.13649 25.2327 3.48773 
50.7548 50.7353 -4.72795 -14.8205 -13.0318 -8.2367 3.15181 -1.50752 2.01092 6.33216 1.08335 3.6921 6.29207 2.72123 3.58809 -6.06753 17.6659 -2.08856 3.8149 9.18089 -4.15212 57.563 -10.1251 -6.29278 123.562 35.9886 -48.1339 2.59279e-006 8.62812e-006 2.07828e-006 24.7632 31.2144 -2.03403 -6.77928e-006 -8.0074e-006 -3 8.02943 -4.95125 0.697434 -66.2699 -3.52577 2.73363 -118.939 34.2786 12.8229 -1.19151e-006 7.71617e-008 3.21826e-006 -29.1136 21.9086 5.24658 -7.33054e-006 3.50671e-006 3 -8.03026 -4.9516 -0.697807 -174.078 71.9908 6.51809 -180 1.52481e-005 177.856 119.392 86.9385 -123.871 -3.12544e-007 1.71389e-006 2.03107 -19.8002 65.1354 17.2253 8.13649 25.2327 -3.48774 -112.013 67.8484 -60.6712 4.5067e-006 -1.99009e-005 -0.345752 121.119 -82.885 119.056 3.37344e-006 -1.21137e-005 -2.63152 18.7379 66.0649 -17.9975 -8.13649 25.2327 3.48773 
50.7615 50.7404 -4.72362 -14.8198 -13.0236 -8.25507 3.15132 -1.50584 2.01406 6.33119 1.08688 3.69833 6.29103 2.72475 3.59434 -6.07526 17.6894 -2.08182 3.8267 9.18086 -4.14894 57.5657 -10.1213 -6.29031 123.577 36.0125 -48.1152 2.59279e-006 8.62812e-006 2.07828e-006 24.7819 31.1658 -2.03365 -6.77928e-006 -8.0074e-006 -3 8.02943 -4.95125 0.697434 -66.2758 -3.52819 2.73538 -118.94 34.3013 12.8397 -1.19151e-006 7.71617e-008 3.21826e-006 -29.1259 21.8859 5.24068 -7.33054e-006 3.50671e-006 3 -8.03026 -4.9516 -0.697807 -174.029 71.988 6.45432 -180 1.52481e-005 177.857 119.544 86.923 -124.024 -3.12544e-007 1.71389e-006 2.02945 -19.7948 65.1291 17.2229 8.13649 25.2327 -3.48774 -112.011 67.836 -60.6731 4.5067e-006 -1.99009e-005 -0.344094 121.102 -82.8913 119.042 3.37344e-006 -1.21137e-005 -2.62955 18.737 66.0683 -18.0001 -8.13649 25.2327 3.48773 
50.7652 50.7372 -4.72983 -14.8169 -13.0189 -8.27363 3.15045 -1.50337 2.01731 6.32944 1.09196 3.70478 6.28921 2.72984 3.60082 -6.08401 17.7125 -2.07511 3.83913 9.18133 -4.14613 57.5675 -10.1181 -6.28822 123.593 36.0369 -48.0969 2.59279e-006 8.62812e-006 2.07828e-006 24.8009 31.1163 -2.03317 -6.77928e-006 -8.0074e-006 -3 8.02943 -4.95125 0.697434 -66.2832 -3.53088 2.73739 -118.939 34.3256 12.8568 -1.19151e-006 7.71617e-008 3.21826e-006 -29.1383 21.8622 5.2345 -7.33054e-006 3.50671e-006 3 -8.03026 -4.9516 -0.697807 -173.982 71.9821 6.39056 -180 1.52481e-005 177.857 119.712 86.9088 -124.193 -3.12544e-007 1.71389e-006 2.02792 -19.7889 65.1227 17.2202 8.13649 25.2327 -3.48774 -112.019 67.8213 -60.6659 4.5067e-006 -1.99009e-005 -0.342613 121.079 -82.8981 119.022 3.37344e-006 -1.21137e-005 -2.62764 18.7363 66.0717 -18.0028 -8.13649 25.2327 3.48773 
